<mxfile host="app.diagrams.net" agent="Mozilla/5.0 (Macintosh; Intel Mac OS X 10_15_7) AppleWebKit/605.1.15 (KHTML, like Gecko) Version/18.1 Safari/605.1.15" version="24.8.3">
  <diagram name="Page-1" id="u5YEfdnW1iWnqYzpXNXf">
    <mxGraphModel dx="2171" dy="1176" grid="1" gridSize="10" guides="1" tooltips="1" connect="1" arrows="1" fold="1" page="1" pageScale="1" pageWidth="3000" pageHeight="3000" math="0" shadow="0">
      <root>
        <mxCell id="0" />
        <mxCell id="1" parent="0" />
        <mxCell id="aeC7ui7vRPgSLl6If3OF-1" value="EloData" style="swimlane;fontStyle=1;align=center;verticalAlign=top;childLayout=stackLayout;horizontal=1;startSize=26;horizontalStack=0;resizeParent=1;resizeParentMax=0;resizeLast=0;collapsible=1;marginBottom=0;whiteSpace=wrap;html=1;" parent="1" vertex="1">
          <mxGeometry x="1072.5" y="150" width="420" height="240" as="geometry" />
        </mxCell>
        <mxCell id="aeC7ui7vRPgSLl6If3OF-2" value="-playerID: String&amp;nbsp;&lt;div&gt;-elo: int&amp;nbsp;&lt;/div&gt;&lt;div&gt;-gamesPlayed: int&amp;nbsp;&lt;/div&gt;&lt;div&gt;-wins: int&amp;nbsp;&lt;/div&gt;&lt;div&gt;-losses: int&lt;/div&gt;" style="text;strokeColor=none;fillColor=none;align=left;verticalAlign=top;spacingLeft=4;spacingRight=4;overflow=hidden;rotatable=0;points=[[0,0.5],[1,0.5]];portConstraint=eastwest;whiteSpace=wrap;html=1;" parent="aeC7ui7vRPgSLl6If3OF-1" vertex="1">
          <mxGeometry y="26" width="420" height="84" as="geometry" />
        </mxCell>
        <mxCell id="aeC7ui7vRPgSLl6If3OF-3" value="" style="line;strokeWidth=1;fillColor=none;align=left;verticalAlign=middle;spacingTop=-1;spacingLeft=3;spacingRight=3;rotatable=0;labelPosition=right;points=[];portConstraint=eastwest;strokeColor=inherit;" parent="aeC7ui7vRPgSLl6If3OF-1" vertex="1">
          <mxGeometry y="110" width="420" height="8" as="geometry" />
        </mxCell>
        <mxCell id="aeC7ui7vRPgSLl6If3OF-4" value="+EloData(playerID:String, elo:int, gamesPlayed:int, wins:int, losses:int): void&amp;nbsp;&lt;div&gt;+getPlayerID: void&amp;nbsp;&lt;/div&gt;&lt;div&gt;+getElo(): int&amp;nbsp;&lt;/div&gt;&lt;div&gt;+setElo(elo:int): void&amp;nbsp;&lt;/div&gt;&lt;div&gt;+getGamesPlayed(): int&amp;nbsp;&lt;/div&gt;&lt;div&gt;+getWins(): int&amp;nbsp;&lt;/div&gt;&lt;div&gt;+getLosses(): int &amp;nbsp;&lt;/div&gt;" style="text;strokeColor=none;fillColor=none;align=left;verticalAlign=top;spacingLeft=4;spacingRight=4;overflow=hidden;rotatable=0;points=[[0,0.5],[1,0.5]];portConstraint=eastwest;whiteSpace=wrap;html=1;" parent="aeC7ui7vRPgSLl6If3OF-1" vertex="1">
          <mxGeometry y="118" width="420" height="122" as="geometry" />
        </mxCell>
        <mxCell id="aeC7ui7vRPgSLl6If3OF-5" value="EloRating" style="swimlane;fontStyle=1;align=center;verticalAlign=top;childLayout=stackLayout;horizontal=1;startSize=26;horizontalStack=0;resizeParent=1;resizeParentMax=0;resizeLast=0;collapsible=1;marginBottom=0;whiteSpace=wrap;html=1;" parent="1" vertex="1">
          <mxGeometry x="1112.5" y="510" width="340" height="80" as="geometry" />
        </mxCell>
        <mxCell id="aeC7ui7vRPgSLl6If3OF-7" value="" style="line;strokeWidth=1;fillColor=none;align=left;verticalAlign=middle;spacingTop=-1;spacingLeft=3;spacingRight=3;rotatable=0;labelPosition=right;points=[];portConstraint=eastwest;strokeColor=inherit;" parent="aeC7ui7vRPgSLl6If3OF-5" vertex="1">
          <mxGeometry y="26" width="340" height="8" as="geometry" />
        </mxCell>
        <mxCell id="aeC7ui7vRPgSLl6If3OF-8" value="+calculateNewElo(myElo:int, enemyElo:int, won:boolean): int&lt;div&gt;+updateElo(winner:Elodata, loser:Elodata): void&lt;/div&gt;" style="text;strokeColor=none;fillColor=none;align=left;verticalAlign=top;spacingLeft=4;spacingRight=4;overflow=hidden;rotatable=0;points=[[0,0.5],[1,0.5]];portConstraint=eastwest;whiteSpace=wrap;html=1;" parent="aeC7ui7vRPgSLl6If3OF-5" vertex="1">
          <mxGeometry y="34" width="340" height="46" as="geometry" />
        </mxCell>
        <mxCell id="aeC7ui7vRPgSLl6If3OF-12" value="Leaderboard" style="swimlane;fontStyle=1;align=center;verticalAlign=top;childLayout=stackLayout;horizontal=1;startSize=26;horizontalStack=0;resizeParent=1;resizeParentMax=0;resizeLast=0;collapsible=1;marginBottom=0;whiteSpace=wrap;html=1;" parent="1" vertex="1">
          <mxGeometry x="660" y="510" width="240" height="120" as="geometry" />
        </mxCell>
        <mxCell id="aeC7ui7vRPgSLl6If3OF-13" value="-players: HashMap&amp;lt;String, EloData&amp;gt;" style="text;strokeColor=none;fillColor=none;align=left;verticalAlign=top;spacingLeft=4;spacingRight=4;overflow=hidden;rotatable=0;points=[[0,0.5],[1,0.5]];portConstraint=eastwest;whiteSpace=wrap;html=1;" parent="aeC7ui7vRPgSLl6If3OF-12" vertex="1">
          <mxGeometry y="26" width="240" height="24" as="geometry" />
        </mxCell>
        <mxCell id="aeC7ui7vRPgSLl6If3OF-14" value="" style="line;strokeWidth=1;fillColor=none;align=left;verticalAlign=middle;spacingTop=-1;spacingLeft=3;spacingRight=3;rotatable=0;labelPosition=right;points=[];portConstraint=eastwest;strokeColor=inherit;" parent="aeC7ui7vRPgSLl6If3OF-12" vertex="1">
          <mxGeometry y="50" width="240" height="8" as="geometry" />
        </mxCell>
        <mxCell id="aeC7ui7vRPgSLl6If3OF-15" value="+loadPlayersFromCSV(): void&amp;nbsp;&lt;div&gt;+addPlayer(playerID:EloData): void&amp;nbsp;&lt;/div&gt;&lt;div&gt;+sortedLeaderboard(): List&amp;lt;EloData&amp;gt;&amp;nbsp;&lt;/div&gt;" style="text;strokeColor=none;fillColor=none;align=left;verticalAlign=top;spacingLeft=4;spacingRight=4;overflow=hidden;rotatable=0;points=[[0,0.5],[1,0.5]];portConstraint=eastwest;whiteSpace=wrap;html=1;" parent="aeC7ui7vRPgSLl6If3OF-12" vertex="1">
          <mxGeometry y="58" width="240" height="62" as="geometry" />
        </mxCell>
        <mxCell id="aeC7ui7vRPgSLl6If3OF-16" value="MatchMaker" style="swimlane;fontStyle=1;align=center;verticalAlign=top;childLayout=stackLayout;horizontal=1;startSize=26;horizontalStack=0;resizeParent=1;resizeParentMax=0;resizeLast=0;collapsible=1;marginBottom=0;whiteSpace=wrap;html=1;" parent="1" vertex="1">
          <mxGeometry x="1660" y="510" width="310" height="120" as="geometry" />
        </mxCell>
        <mxCell id="aeC7ui7vRPgSLl6If3OF-17" value="-queue: ArrayList&amp;lt;EloData&amp;gt;" style="text;strokeColor=none;fillColor=none;align=left;verticalAlign=top;spacingLeft=4;spacingRight=4;overflow=hidden;rotatable=0;points=[[0,0.5],[1,0.5]];portConstraint=eastwest;whiteSpace=wrap;html=1;" parent="aeC7ui7vRPgSLl6If3OF-16" vertex="1">
          <mxGeometry y="26" width="310" height="24" as="geometry" />
        </mxCell>
        <mxCell id="aeC7ui7vRPgSLl6If3OF-18" value="" style="line;strokeWidth=1;fillColor=none;align=left;verticalAlign=middle;spacingTop=-1;spacingLeft=3;spacingRight=3;rotatable=0;labelPosition=right;points=[];portConstraint=eastwest;strokeColor=inherit;" parent="aeC7ui7vRPgSLl6If3OF-16" vertex="1">
          <mxGeometry y="50" width="310" height="8" as="geometry" />
        </mxCell>
        <mxCell id="aeC7ui7vRPgSLl6If3OF-19" value="+addPlayerToQueue(player:EloData): void&amp;nbsp;&lt;div&gt;+findMatch(): void&amp;nbsp;&lt;/div&gt;&lt;div&gt;+createMatch(player1:EloData, player2:EloData): void&lt;/div&gt;" style="text;strokeColor=none;fillColor=none;align=left;verticalAlign=top;spacingLeft=4;spacingRight=4;overflow=hidden;rotatable=0;points=[[0,0.5],[1,0.5]];portConstraint=eastwest;whiteSpace=wrap;html=1;" parent="aeC7ui7vRPgSLl6If3OF-16" vertex="1">
          <mxGeometry y="58" width="310" height="62" as="geometry" />
        </mxCell>
        <mxCell id="aeC7ui7vRPgSLl6If3OF-21" value="&lt;p style=&quot;margin:0px;margin-top:4px;text-align:center;&quot;&gt;&lt;i&gt;&amp;lt;&amp;lt;Interface&amp;gt;&amp;gt;&lt;/i&gt;&lt;br&gt;&lt;b&gt;IEloRating&lt;/b&gt;&lt;/p&gt;&lt;hr size=&quot;1&quot; style=&quot;border-style:solid;&quot;&gt;&lt;p style=&quot;margin:0px;margin-left:4px;&quot;&gt;&lt;/p&gt;&lt;p style=&quot;margin:0px;margin-left:4px;&quot;&gt;+calculateNewElo(myElo:int, enemyElo:int, won:boolean): int&lt;/p&gt;&lt;p style=&quot;margin:0px;margin-left:4px;&quot;&gt;+updateElo(winner:EloData, loser:EloData): void&lt;/p&gt;" style="verticalAlign=top;align=left;overflow=fill;html=1;whiteSpace=wrap;" parent="1" vertex="1">
          <mxGeometry x="1050" y="720" width="345" height="80" as="geometry" />
        </mxCell>
        <mxCell id="aeC7ui7vRPgSLl6If3OF-23" value="&lt;p style=&quot;margin:0px;margin-top:4px;text-align:center;&quot;&gt;&lt;i&gt;&amp;lt;&amp;lt;Interface&amp;gt;&amp;gt;&lt;/i&gt;&lt;br&gt;&lt;b&gt;IMatchMaker&lt;/b&gt;&lt;/p&gt;&lt;hr size=&quot;1&quot; style=&quot;border-style:solid;&quot;&gt;&lt;p style=&quot;margin:0px;margin-left:4px;&quot;&gt;&lt;/p&gt;&lt;p style=&quot;margin:0px;margin-left:4px;&quot;&gt;+addPlayerToQueue(player:EloData): void&amp;nbsp;&lt;/p&gt;&lt;p style=&quot;margin:0px;margin-left:4px;&quot;&gt;+findMatch(): void&amp;nbsp;&lt;/p&gt;" style="verticalAlign=top;align=left;overflow=fill;html=1;whiteSpace=wrap;" parent="1" vertex="1">
          <mxGeometry x="1515" y="720" width="345" height="80" as="geometry" />
        </mxCell>
        <mxCell id="aeC7ui7vRPgSLl6If3OF-24" value="&lt;p style=&quot;margin:0px;margin-top:4px;text-align:center;&quot;&gt;&lt;i&gt;&amp;lt;&amp;lt;Interface&amp;gt;&amp;gt;&lt;/i&gt;&lt;br&gt;&lt;b&gt;ILeaderboard&lt;/b&gt;&lt;/p&gt;&lt;hr size=&quot;1&quot; style=&quot;border-style:solid;&quot;&gt;&lt;p style=&quot;margin:0px;margin-left:4px;&quot;&gt;&lt;/p&gt;&lt;p style=&quot;margin:0px;margin-left:4px;&quot;&gt;+loadPlayersFromCSV(): void&amp;nbsp;&lt;/p&gt;&lt;p style=&quot;margin:0px;margin-left:4px;&quot;&gt;+addPlayer(playerID:EloData): void&amp;nbsp;&lt;/p&gt;&lt;p style=&quot;margin:0px;margin-left:4px;&quot;&gt;+sortedLeaderboard(): List&amp;lt;EloData&amp;gt;&lt;/p&gt;" style="verticalAlign=top;align=left;overflow=fill;html=1;whiteSpace=wrap;" parent="1" vertex="1">
          <mxGeometry x="630" y="720" width="345" height="100" as="geometry" />
        </mxCell>
        <mxCell id="aeC7ui7vRPgSLl6If3OF-25" value="" style="endArrow=block;dashed=1;endFill=0;endSize=12;html=1;rounded=0;entryX=0.5;entryY=0;entryDx=0;entryDy=0;" parent="1" target="aeC7ui7vRPgSLl6If3OF-24" edge="1">
          <mxGeometry width="160" relative="1" as="geometry">
            <mxPoint x="801.88" y="630" as="sourcePoint" />
            <mxPoint x="801.88" y="680.21" as="targetPoint" />
          </mxGeometry>
        </mxCell>
        <mxCell id="aeC7ui7vRPgSLl6If3OF-26" value="" style="endArrow=block;dashed=1;endFill=0;endSize=12;html=1;rounded=0;entryX=0.5;entryY=0;entryDx=0;entryDy=0;exitX=0.331;exitY=1.056;exitDx=0;exitDy=0;exitPerimeter=0;" parent="1" target="aeC7ui7vRPgSLl6If3OF-21" edge="1" source="aeC7ui7vRPgSLl6If3OF-8">
          <mxGeometry width="160" relative="1" as="geometry">
            <mxPoint x="1282.1399999999999" y="590" as="sourcePoint" />
            <mxPoint x="1282.1399999999999" y="640.21" as="targetPoint" />
          </mxGeometry>
        </mxCell>
        <mxCell id="aeC7ui7vRPgSLl6If3OF-27" value="" style="endArrow=block;dashed=1;endFill=0;endSize=12;html=1;rounded=0;entryX=0.5;entryY=0;entryDx=0;entryDy=0;" parent="1" target="aeC7ui7vRPgSLl6If3OF-23" edge="1">
          <mxGeometry width="160" relative="1" as="geometry">
            <mxPoint x="1687.1399999999999" y="630" as="sourcePoint" />
            <mxPoint x="1687.1399999999999" y="680.21" as="targetPoint" />
          </mxGeometry>
        </mxCell>
        <mxCell id="aeC7ui7vRPgSLl6If3OF-28" value="Use" style="endArrow=open;endSize=12;dashed=1;html=1;rounded=0;exitX=0.625;exitY=0;exitDx=0;exitDy=0;exitPerimeter=0;entryX=-0.002;entryY=0.838;entryDx=0;entryDy=0;entryPerimeter=0;" parent="1" source="aeC7ui7vRPgSLl6If3OF-12" target="aeC7ui7vRPgSLl6If3OF-4" edge="1">
          <mxGeometry width="160" relative="1" as="geometry">
            <mxPoint x="942.5" y="450" as="sourcePoint" />
            <mxPoint x="992.5" y="370" as="targetPoint" />
            <Array as="points">
              <mxPoint x="810" y="370" />
            </Array>
          </mxGeometry>
        </mxCell>
        <mxCell id="aeC7ui7vRPgSLl6If3OF-29" value="Use" style="endArrow=open;endSize=12;dashed=1;html=1;rounded=0;exitX=0.471;exitY=0;exitDx=0;exitDy=0;exitPerimeter=0;" parent="1" source="aeC7ui7vRPgSLl6If3OF-5" edge="1">
          <mxGeometry width="160" relative="1" as="geometry">
            <mxPoint x="1272.5" y="440" as="sourcePoint" />
            <mxPoint x="1272.5" y="390" as="targetPoint" />
          </mxGeometry>
        </mxCell>
        <mxCell id="aeC7ui7vRPgSLl6If3OF-30" value="Use" style="endArrow=open;endSize=12;dashed=1;html=1;rounded=0;exitX=0.5;exitY=0;exitDx=0;exitDy=0;" parent="1" edge="1" source="aeC7ui7vRPgSLl6If3OF-16">
          <mxGeometry width="160" relative="1" as="geometry">
            <mxPoint x="1632.5" y="510" as="sourcePoint" />
            <mxPoint x="1492.5" y="370" as="targetPoint" />
            <Array as="points">
              <mxPoint x="1815" y="370" />
            </Array>
          </mxGeometry>
        </mxCell>
        <mxCell id="aeC7ui7vRPgSLl6If3OF-31" value="Use" style="endArrow=open;endSize=12;dashed=1;html=1;rounded=0;entryX=0.07;entryY=0.997;entryDx=0;entryDy=0;entryPerimeter=0;exitX=0.925;exitY=-0.001;exitDx=0;exitDy=0;exitPerimeter=0;" parent="1" target="aeC7ui7vRPgSLl6If3OF-4" edge="1" source="aeC7ui7vRPgSLl6If3OF-24">
          <mxGeometry width="160" relative="1" as="geometry">
            <mxPoint x="950" y="700" as="sourcePoint" />
            <mxPoint x="1102.5" y="410" as="targetPoint" />
            <Array as="points">
              <mxPoint x="950" y="460" />
              <mxPoint x="1102.5" y="460" />
            </Array>
          </mxGeometry>
        </mxCell>
        <mxCell id="aeC7ui7vRPgSLl6If3OF-32" value="Use" style="endArrow=open;endSize=12;dashed=1;html=1;rounded=0;exitX=0.11;exitY=-0.017;exitDx=0;exitDy=0;exitPerimeter=0;" parent="1" source="aeC7ui7vRPgSLl6If3OF-23" edge="1">
          <mxGeometry width="160" relative="1" as="geometry">
            <mxPoint x="1532.5" y="710" as="sourcePoint" />
            <mxPoint x="1462.5" y="390" as="targetPoint" />
            <Array as="points">
              <mxPoint x="1552.5" y="670" />
              <mxPoint x="1462.5" y="670" />
            </Array>
          </mxGeometry>
        </mxCell>
        <mxCell id="aeC7ui7vRPgSLl6If3OF-33" value="Use" style="endArrow=open;endSize=12;dashed=1;html=1;rounded=0;entryX=0.146;entryY=1.013;entryDx=0;entryDy=0;entryPerimeter=0;exitX=0.122;exitY=-0.014;exitDx=0;exitDy=0;exitPerimeter=0;" parent="1" source="aeC7ui7vRPgSLl6If3OF-21" target="aeC7ui7vRPgSLl6If3OF-4" edge="1">
          <mxGeometry width="160" relative="1" as="geometry">
            <mxPoint x="1152.5" y="710" as="sourcePoint" />
            <mxPoint x="1131.5" y="410" as="targetPoint" />
            <Array as="points">
              <mxPoint x="1092.5" y="620" />
              <mxPoint x="1092.5" y="480" />
              <mxPoint x="1132.5" y="480" />
            </Array>
          </mxGeometry>
        </mxCell>
        <mxCell id="Fmwb5GV5SX87CYwvobxa-1" value="EloRatingController" style="swimlane;fontStyle=1;align=center;verticalAlign=top;childLayout=stackLayout;horizontal=1;startSize=26;horizontalStack=0;resizeParent=1;resizeParentMax=0;resizeLast=0;collapsible=1;marginBottom=0;whiteSpace=wrap;html=1;" vertex="1" parent="1">
          <mxGeometry x="1150" y="870" width="310" height="130" as="geometry" />
        </mxCell>
        <mxCell id="Fmwb5GV5SX87CYwvobxa-2" value="-elorating: EloRating" style="text;strokeColor=none;fillColor=none;align=left;verticalAlign=top;spacingLeft=4;spacingRight=4;overflow=hidden;rotatable=0;points=[[0,0.5],[1,0.5]];portConstraint=eastwest;whiteSpace=wrap;html=1;" vertex="1" parent="Fmwb5GV5SX87CYwvobxa-1">
          <mxGeometry y="26" width="310" height="24" as="geometry" />
        </mxCell>
        <mxCell id="Fmwb5GV5SX87CYwvobxa-3" value="" style="line;strokeWidth=1;fillColor=none;align=left;verticalAlign=middle;spacingTop=-1;spacingLeft=3;spacingRight=3;rotatable=0;labelPosition=right;points=[];portConstraint=eastwest;strokeColor=inherit;" vertex="1" parent="Fmwb5GV5SX87CYwvobxa-1">
          <mxGeometry y="50" width="310" height="8" as="geometry" />
        </mxCell>
        <mxCell id="Fmwb5GV5SX87CYwvobxa-4" value="+EloRatingController(): void&amp;nbsp;&lt;div&gt;+updatePlayerElo(winner:EloData, loser:EloData): void&amp;nbsp;&lt;/div&gt;&lt;div&gt;+getPlayerElo(player:EloData): int&amp;nbsp;&lt;/div&gt;&lt;div&gt;+displayPlayerStats(player:EloData): void&lt;/div&gt;" style="text;strokeColor=none;fillColor=none;align=left;verticalAlign=top;spacingLeft=4;spacingRight=4;overflow=hidden;rotatable=0;points=[[0,0.5],[1,0.5]];portConstraint=eastwest;whiteSpace=wrap;html=1;" vertex="1" parent="Fmwb5GV5SX87CYwvobxa-1">
          <mxGeometry y="58" width="310" height="72" as="geometry" />
        </mxCell>
        <mxCell id="Fmwb5GV5SX87CYwvobxa-5" value="Use" style="endArrow=open;endSize=12;dashed=1;html=1;rounded=0;exitX=0.471;exitY=0;exitDx=0;exitDy=0;exitPerimeter=0;entryX=0.908;entryY=1.036;entryDx=0;entryDy=0;entryPerimeter=0;" edge="1" parent="1" target="aeC7ui7vRPgSLl6If3OF-8">
          <mxGeometry width="160" relative="1" as="geometry">
            <mxPoint x="1420.5" y="870" as="sourcePoint" />
            <mxPoint x="1420" y="750" as="targetPoint" />
          </mxGeometry>
        </mxCell>
        <mxCell id="Fmwb5GV5SX87CYwvobxa-6" value="MatchmakerController" style="swimlane;fontStyle=1;align=center;verticalAlign=top;childLayout=stackLayout;horizontal=1;startSize=26;horizontalStack=0;resizeParent=1;resizeParentMax=0;resizeLast=0;collapsible=1;marginBottom=0;whiteSpace=wrap;html=1;" vertex="1" parent="1">
          <mxGeometry x="1770" y="870" width="200" height="150" as="geometry" />
        </mxCell>
        <mxCell id="Fmwb5GV5SX87CYwvobxa-7" value="-matchMaker: MatchMaker" style="text;strokeColor=none;fillColor=none;align=left;verticalAlign=top;spacingLeft=4;spacingRight=4;overflow=hidden;rotatable=0;points=[[0,0.5],[1,0.5]];portConstraint=eastwest;whiteSpace=wrap;html=1;" vertex="1" parent="Fmwb5GV5SX87CYwvobxa-6">
          <mxGeometry y="26" width="200" height="24" as="geometry" />
        </mxCell>
        <mxCell id="Fmwb5GV5SX87CYwvobxa-8" value="" style="line;strokeWidth=1;fillColor=none;align=left;verticalAlign=middle;spacingTop=-1;spacingLeft=3;spacingRight=3;rotatable=0;labelPosition=right;points=[];portConstraint=eastwest;strokeColor=inherit;" vertex="1" parent="Fmwb5GV5SX87CYwvobxa-6">
          <mxGeometry y="50" width="200" height="8" as="geometry" />
        </mxCell>
        <mxCell id="Fmwb5GV5SX87CYwvobxa-9" value="+MatchmakerController(): void&amp;nbsp;&lt;div&gt;+addPlayer(player:EloData): void&amp;nbsp;&lt;/div&gt;&lt;div&gt;+getQueue(): List&amp;lt;EloData&amp;gt;&lt;/div&gt;&lt;div&gt;+findAndCreateMatch(): void&amp;nbsp;&lt;/div&gt;&lt;div&gt;+displayQueue(): void&lt;/div&gt;" style="text;strokeColor=none;fillColor=none;align=left;verticalAlign=top;spacingLeft=4;spacingRight=4;overflow=hidden;rotatable=0;points=[[0,0.5],[1,0.5]];portConstraint=eastwest;whiteSpace=wrap;html=1;" vertex="1" parent="Fmwb5GV5SX87CYwvobxa-6">
          <mxGeometry y="58" width="200" height="92" as="geometry" />
        </mxCell>
        <mxCell id="Fmwb5GV5SX87CYwvobxa-10" value="Use" style="endArrow=open;endSize=12;dashed=1;html=1;rounded=0;entryX=0.908;entryY=1.036;entryDx=0;entryDy=0;entryPerimeter=0;" edge="1" parent="1">
          <mxGeometry width="160" relative="1" as="geometry">
            <mxPoint x="1920.5" y="870" as="sourcePoint" />
            <mxPoint x="1920" y="630" as="targetPoint" />
          </mxGeometry>
        </mxCell>
        <mxCell id="Fmwb5GV5SX87CYwvobxa-11" value="LeaderboardController" style="swimlane;fontStyle=1;align=center;verticalAlign=top;childLayout=stackLayout;horizontal=1;startSize=26;horizontalStack=0;resizeParent=1;resizeParentMax=0;resizeLast=0;collapsible=1;marginBottom=0;whiteSpace=wrap;html=1;" vertex="1" parent="1">
          <mxGeometry x="615" y="870" width="330" height="200" as="geometry" />
        </mxCell>
        <mxCell id="Fmwb5GV5SX87CYwvobxa-12" value="-leaderboard: Leaderboard&amp;nbsp;&lt;div&gt;-elo: EloRating&amp;nbsp;&lt;/div&gt;&lt;div&gt;-matchmaker: MatchMaker&lt;/div&gt;" style="text;strokeColor=none;fillColor=none;align=left;verticalAlign=top;spacingLeft=4;spacingRight=4;overflow=hidden;rotatable=0;points=[[0,0.5],[1,0.5]];portConstraint=eastwest;whiteSpace=wrap;html=1;" vertex="1" parent="Fmwb5GV5SX87CYwvobxa-11">
          <mxGeometry y="26" width="330" height="54" as="geometry" />
        </mxCell>
        <mxCell id="Fmwb5GV5SX87CYwvobxa-13" value="" style="line;strokeWidth=1;fillColor=none;align=left;verticalAlign=middle;spacingTop=-1;spacingLeft=3;spacingRight=3;rotatable=0;labelPosition=right;points=[];portConstraint=eastwest;strokeColor=inherit;" vertex="1" parent="Fmwb5GV5SX87CYwvobxa-11">
          <mxGeometry y="80" width="330" height="8" as="geometry" />
        </mxCell>
        <mxCell id="Fmwb5GV5SX87CYwvobxa-14" value="+LeaderboardController(): void&amp;nbsp;&lt;div&gt;+loadPlayers(filename:String): void&amp;nbsp;&lt;/div&gt;&lt;div&gt;+displaySortedLeaderboard(): void&amp;nbsp;&lt;/div&gt;&lt;div&gt;+addPlayer(player:EloData): void&amp;nbsp;&lt;/div&gt;&lt;div&gt;+findMatch(): void&amp;nbsp;&lt;/div&gt;&lt;div&gt;+updateEloAfterMatch(winner:EloData, loser:EloData): void&lt;/div&gt;" style="text;strokeColor=none;fillColor=none;align=left;verticalAlign=top;spacingLeft=4;spacingRight=4;overflow=hidden;rotatable=0;points=[[0,0.5],[1,0.5]];portConstraint=eastwest;whiteSpace=wrap;html=1;" vertex="1" parent="Fmwb5GV5SX87CYwvobxa-11">
          <mxGeometry y="88" width="330" height="112" as="geometry" />
        </mxCell>
        <mxCell id="Fmwb5GV5SX87CYwvobxa-15" value="Use" style="endArrow=open;endSize=12;dashed=1;html=1;rounded=0;exitX=0.11;exitY=-0.017;exitDx=0;exitDy=0;exitPerimeter=0;entryX=0.126;entryY=1.015;entryDx=0;entryDy=0;entryPerimeter=0;" edge="1" parent="1" target="aeC7ui7vRPgSLl6If3OF-15">
          <mxGeometry width="160" relative="1" as="geometry">
            <mxPoint x="630" y="870" as="sourcePoint" />
            <mxPoint x="690" y="640" as="targetPoint" />
            <Array as="points">
              <mxPoint x="630" y="840" />
              <mxPoint x="590" y="840" />
              <mxPoint x="590" y="700" />
              <mxPoint x="690" y="700" />
            </Array>
          </mxGeometry>
        </mxCell>
      </root>
    </mxGraphModel>
  </diagram>
</mxfile>
